# 3ds Max Wavefront OBJ Exporter v0.97b - (c)2007 guruware
# File Created: 03.05.2017 14:57:32

mtllib voorbart.mtl

#
# object Plane
#

#bottom left
v  -32.0000 0.0000 -32.0000

#bottom right
v  0.0000 0.0000 32.0000

#top right
v  32.0000 0.0000 32.0000

#top left
v  32.0000 0.0000 0.0000
# 4 vertices

vn 0.0000 1.0000 -0.0000
# 1 vertex normals

vt 0.0000 1.0000 0.0000
vt 0.0000 0.0000 0.0000
vt 1.0000 0.0000 0.0000
vt 1.0000 1.0000 0.0000
# 4 texture coords

g Plane005
usemtl wire_228153184
s 1
f 1/1/1 2/2/1 3/3/1 4/4/1 
# 1 polygons

