<svg xmlns="http://www.w3.org/2000/svg" viewBox="0 0 227.96 32"><defs><style>.cls-1{fill:#3174a3;}.cls-2{fill:#303335;}</style></defs><title>Asset 1</title><g id="Layer_2" data-name="Layer 2"><g id="Layer_1-2" data-name="Layer 1"><g id="_Group_" data-name="&lt;Group&gt;"><polygon class="cls-1" points="32 16 0 32 16 0 32 0 32 16"/></g><g id="_Group_2" data-name="&lt;Group&gt;"><polygon class="cls-1" points="32 27.99 32 20.47 8.94 32 32 27.99"/></g><g id="_Group_3" data-name="&lt;Group&gt;"><polygon class="cls-1" points="11.53 0 4 0 0 23.06 11.53 0"/></g><path class="cls-2" d="M101,28.48H95.78V9.13L87.13,23.71,78.83,9V28.48H73.61V0h6l7.62,13.62L95.19,0H101Z"/><path class="cls-2" d="M66.49,28.48H61.28V9.13L52.63,23.71,44.33,9V28.48H39.12V0h6l7.62,13.62L60.7,0h5.8Z"/><path class="cls-2" d="M141.51,22.92A14.89,14.89,0,0,1,139,25.41a15.21,15.21,0,0,1-2.86,1.73,14.26,14.26,0,0,1-3.05,1,15.12,15.12,0,0,1-3.1.33,14.94,14.94,0,0,1-5.73-1.1,14.63,14.63,0,0,1-4.67-3,14.38,14.38,0,0,1-3.16-4.53,13.61,13.61,0,0,1-1.17-5.63,13.51,13.51,0,0,1,1.15-5.54,14.1,14.1,0,0,1,3.16-4.51,15.11,15.11,0,0,1,4.68-3A14.74,14.74,0,0,1,129.94,0a14.26,14.26,0,0,1,6.43,1.44,15.24,15.24,0,0,1,4.92,3.84L137.7,9a9.31,9.31,0,0,0-3.46-3A9.88,9.88,0,0,0,130,5a9.35,9.35,0,0,0-3.67.72,9.57,9.57,0,0,0-3,2,9.26,9.26,0,0,0-2,2.92,9,9,0,0,0,0,7.14,9.44,9.44,0,0,0,5,4.92,9.34,9.34,0,0,0,3.66.72,9,9,0,0,0,3.49-.69,10.77,10.77,0,0,0,2.94-1.82V18.29h-5.63V13.76h10.74Z"/><path class="cls-2" d="M169.46,1.06V15.44a15.43,15.43,0,0,1-.82,5.11,12.23,12.23,0,0,1-2.38,4.13,11.08,11.08,0,0,1-3.81,2.78,13.47,13.47,0,0,1-10.21,0,11.4,11.4,0,0,1-3.86-2.73,12,12,0,0,1-2.45-4.08,14.65,14.65,0,0,1-.86-5.06V1.06h5.32V15.65a9.65,9.65,0,0,0,.45,3,7.12,7.12,0,0,0,1.3,2.42,6.11,6.11,0,0,0,2.14,1.63,6.86,6.86,0,0,0,2.93.6,7.49,7.49,0,0,0,3-.57,5.68,5.68,0,0,0,2.13-1.58,6.93,6.93,0,0,0,1.27-2.38,10.09,10.09,0,0,0,.43-3V1.06Z"/><path class="cls-2" d="M178.33,28.48H173V1.06h5.32Z"/><path class="cls-2" d="M206.29,14.75a14.69,14.69,0,0,1-1,5.33,13.66,13.66,0,0,1-2.68,4.36,12.46,12.46,0,0,1-9.3,4H181.89V1h11.46a12.28,12.28,0,0,1,5.2,1.1,12.88,12.88,0,0,1,4.1,3,13.42,13.42,0,0,1,2.68,4.36A14.74,14.74,0,0,1,206.29,14.75Zm-5.39-.14a10.14,10.14,0,0,0-.58-3.64,8.92,8.92,0,0,0-1.78-3,8.25,8.25,0,0,0-2.86-2,9.51,9.51,0,0,0-3.83-.74h-4.63V23.95h4.63a9.57,9.57,0,0,0,3.76-.7,8.14,8.14,0,0,0,2.83-2,8.82,8.82,0,0,0,1.8-3A11.1,11.1,0,0,0,200.9,14.62Z"/><path class="cls-2" d="M228,28.48H209.85V1.06H228V5.46h-12.9V12h12.73V16.3H215.06v7.55H228Z"/></g></g></svg>