# 3ds Max Wavefront OBJ Exporter v0.97b - (c)2007 guruware
# File Created: 22.05.2017 09:39:06

#
# object museum001export
#

v  -817.6851 0.0000 500.0000
v  983.8522 0.0000 500.0000
v  1064.3772 0.0000 419.4750
v  1064.3772 0.0000 -996.9071
v  -898.2101 0.0000 -996.9071
v  -898.2101 0.0000 419.4750
v  1064.3772 362.9476 419.4751
v  1064.3772 362.9476 -996.9071
v  -898.2101 362.9476 -996.9071
v  -898.2101 362.9476 419.4751
v  -828.6184 362.9476 459.4875
v  -452.2203 362.9476 307.9847
v  595.7095 362.9476 307.9847
v  983.8522 362.9476 500.0000
v  994.7855 362.9476 459.4875
v  -817.6851 362.9476 500.0000
v  595.7095 362.9476 -789.4907
v  -452.2203 362.9476 -789.4907
v  -452.2203 395.9392 307.9847
v  595.7095 395.9392 307.9847
v  595.7095 395.9392 -789.4907
v  -452.2203 395.9392 -789.4907
v  -96.9825 101.2362 500.0000
v  96.9825 101.2362 500.0000
v  -96.9825 262.7284 500.0000
v  96.9825 262.7284 500.0000
v  -96.9825 101.2362 522.5812
v  96.9825 101.2362 522.5812
v  -96.9825 262.7284 522.5812
v  96.9825 262.7284 522.5812
v  -892.9913 418.7378 500.0109
v  -892.9915 418.7378 -997.1901
v  1071.5244 418.7378 -997.1901
v  1071.5245 418.7378 500.0107
# 34 vertices

vn 0.0000 1.0000 -0.0000
vn -1.0000 0.0000 -0.0000
vn 0.0000 0.0000 1.0000
vn 1.0000 0.0000 -0.0000
vn 0.0000 -1.0000 -0.0000
vn 0.0000 0.0000 -1.0000
vn -0.7071 0.0000 -0.7071
vn 0.7071 0.0000 -0.7071
vn 0.0000 -0.0000 -1.0000
vn -0.0000 0.0000 -1.0000
# 10 vertex normals

vt 0.4775 0.7628 0.0000
vt 0.0223 0.7628 0.0000
vt 0.0020 0.7424 0.0000
vt 0.0020 0.3846 0.0000
vt 0.4979 0.3846 0.0000
vt 0.4979 0.7424 0.0000
vt 0.5227 0.8598 0.0000
vt 0.5227 0.7670 0.0000
vt 0.8845 0.7670 0.0000
vt 0.8845 0.8598 0.0000
vt 0.0020 0.8587 0.0000
vt 0.0020 0.7670 0.0000
vt 0.4979 0.7670 0.0000
vt 0.4979 0.8587 0.0000
vt 0.0020 0.9547 0.0000
vt 0.0020 0.8630 0.0000
vt 0.3599 0.8630 0.0000
vt 0.3599 0.9547 0.0000
vt 0.9804 0.3948 0.0000
vt 0.8853 0.4331 0.0000
vt 0.6205 0.4331 0.0000
vt 0.5225 0.3846 0.0000
vt 0.5197 0.3948 0.0000
vt 0.9777 0.3846 0.0000
vt 0.6205 0.7104 0.0000
vt 0.5021 0.7628 0.0000
vt 0.5021 0.4049 0.0000
vt 0.8853 0.7104 0.0000
vt 0.9980 0.7628 0.0000
vt 0.9980 0.4049 0.0000
vt 0.2668 0.9673 0.0000
vt 0.0020 0.9673 0.0000
vt 0.0020 0.9590 0.0000
vt 0.2668 0.9590 0.0000
vt 0.7799 0.1072 0.0000
vt 0.5026 0.1072 0.0000
vt 0.5026 0.0988 0.0000
vt 0.7799 0.0988 0.0000
vt 0.7674 0.1198 0.0000
vt 0.5026 0.1198 0.0000
vt 0.5026 0.1114 0.0000
vt 0.7674 0.1114 0.0000
vt 0.7794 0.8724 0.0000
vt 0.5021 0.8724 0.0000
vt 0.5021 0.8640 0.0000
vt 0.7794 0.8640 0.0000
vt 0.5021 0.7670 0.0000
vt 0.5021 0.8598 0.0000
vt 0.5232 0.0945 0.0000
vt 0.5026 0.0945 0.0000
vt 0.5026 0.0020 0.0000
vt 0.5232 0.0020 0.0000
vt 0.9825 0.0945 0.0000
vt 0.7069 0.0687 0.0000
vt 0.7564 0.0687 0.0000
vt 0.7069 0.0276 0.0000
vt 0.9825 0.0020 0.0000
vt 0.7564 0.0276 0.0000
vt 0.9925 0.0020 0.0000
vt 0.9925 0.0510 0.0000
vt 0.9868 0.0510 0.0000
vt 0.9868 0.0020 0.0000
vt 0.7842 0.0988 0.0000
vt 0.8250 0.0988 0.0000
vt 0.8250 0.1045 0.0000
vt 0.7842 0.1045 0.0000
vt 0.9378 0.7727 0.0000
vt 0.8888 0.7727 0.0000
vt 0.8888 0.7670 0.0000
vt 0.9378 0.7670 0.0000
vt 0.4049 0.8687 0.0000
vt 0.3641 0.8687 0.0000
vt 0.3641 0.8630 0.0000
vt 0.4049 0.8630 0.0000
vt 0.4983 0.0020 0.0000
vt 0.4983 0.3803 0.0000
vt 0.0020 0.3803 0.0000
vt 0.0020 0.0020 0.0000
# 78 texture coords

g museum001export
s 1
f 1/1/1 2/2/1 3/3/1 4/4/1 
f 1/1/1 4/4/1 5/5/1 6/6/1 
s 2
f 3/7/2 7/8/2 8/9/2 4/10/2 
s 4
f 4/11/3 8/12/3 9/13/3 5/14/3 
s 2
f 5/15/4 9/16/4 10/17/4 6/18/4 
s 1
f 11/19/5 12/20/5 13/21/5 14/22/5 
f 13/21/5 15/23/5 14/22/5 
f 16/24/5 11/19/5 14/22/5 
f 15/23/5 13/21/5 17/25/5 8/26/5 
f 7/27/5 15/23/5 8/26/5 
f 8/26/5 17/25/5 18/28/5 9/29/5 
f 9/29/5 18/28/5 12/20/5 10/30/5 
f 12/20/5 11/19/5 10/30/5 
s 2
f 13/31/6 12/32/6 19/33/6 20/34/6 
s 4
f 17/35/2 13/36/2 20/37/2 21/38/2 
s 2
f 18/39/3 17/40/3 21/41/3 22/42/3 
s 4
f 12/43/4 18/44/4 22/45/4 19/46/4 
s 1
f 10/30/5 11/19/5 16/24/5 
f 14/22/5 15/23/5 7/27/5 
s 4
f 14/47/7 7/8/7 3/7/7 2/48/7 
f 1/49/8 6/50/8 10/51/8 16/52/8 
s off
f 2/53/9 1/49/9 23/54/9 24/55/9 
f 1/49/10 16/52/10 25/56/10 23/54/10 
f 16/52/6 14/57/6 26/58/6 25/56/6 
f 14/57/6 2/53/6 24/55/6 26/58/6 
f 24/59/1 23/60/1 27/61/1 28/62/1 
f 23/63/4 25/64/4 29/65/4 27/66/4 
f 25/67/5 26/68/5 30/69/5 29/70/5 
f 26/71/2 24/72/2 28/73/2 30/74/2 
s 1
f 31/75/5 32/76/5 33/77/5 34/78/5 
# 24 polygons - 6 triangles

