# 3ds Max Wavefront OBJ Exporter v0.97b - (c)2007 guruware
# File Created: 18.05.2017 16:24:30

mtllib museum04.mtl

#
# object museum001_chanel01
#

v  -707.0325 0.0000 500.0000
v  764.9327 0.0000 500.0000
v  845.4576 0.0000 419.4750
v  845.4576 0.0000 -812.8732
v  -787.5575 0.0000 -812.8732
v  -787.5575 0.0000 419.4750
v  845.4576 362.9476 419.4751
v  845.4576 362.9476 -812.8732
v  -787.5575 362.9476 -812.8732
v  -787.5575 362.9476 419.4751
v  -717.9658 362.9476 459.4875
v  -170.1600 362.9476 307.9847
v  170.1600 362.9476 307.9847
v  764.9327 362.9476 500.0000
v  775.8660 362.9476 459.4875
v  -707.0325 362.9476 500.0000
v  170.1600 362.9476 -307.9847
v  -170.1600 362.9476 -307.9847
v  -170.1600 395.9392 307.9847
v  170.1600 395.9392 307.9847
v  170.1600 395.9392 -307.9847
v  -170.1600 395.9392 -307.9847
v  -96.9825 101.2362 500.0000
v  96.9825 101.2362 500.0000
v  -96.9825 262.7284 500.0000
v  96.9825 262.7284 500.0000
v  -96.9825 101.2362 522.5812
v  96.9825 101.2362 522.5812
v  -96.9825 262.7284 522.5812
v  96.9825 262.7284 522.5812
# 30 vertices

vn 0.0000 1.0000 -0.0000
vn -1.0000 0.0000 -0.0000
vn 0.0000 0.0000 1.0000
vn 1.0000 0.0000 -0.0000
vn 0.0000 -1.0000 -0.0000
vn 0.0000 0.0000 -1.0000
vn -0.7071 0.0000 -0.7071
vn 0.7071 0.0000 -0.7071
vn -0.0000 0.0000 -1.0000
# 9 vertex normals

vt 0.4765 0.4045 0.0000
vt 0.0342 0.4045 0.0000
vt 0.0100 0.3803 0.0000
vt 0.0100 0.0100 0.0000
vt 0.5007 0.0100 0.0000
vt 0.5007 0.3803 0.0000
vt 0.5477 0.5364 0.0000
vt 0.5477 0.4274 0.0000
vt 0.9180 0.4274 0.0000
vt 0.9180 0.5364 0.0000
vt 0.0100 0.9538 0.0000
vt 0.0100 0.8447 0.0000
vt 0.5007 0.8447 0.0000
vt 0.5007 0.9538 0.0000
vt 0.5235 0.2510 0.0000
vt 0.5235 0.1419 0.0000
vt 0.8938 0.1419 0.0000
vt 0.8938 0.2510 0.0000
vt 0.4797 0.4395 0.0000
vt 0.3152 0.4850 0.0000
vt 0.2129 0.4850 0.0000
vt 0.0342 0.4274 0.0000
vt 0.0309 0.4395 0.0000
vt 0.4765 0.4274 0.0000
vt 0.2129 0.6701 0.0000
vt 0.0100 0.8218 0.0000
vt 0.0100 0.4515 0.0000
vt 0.3152 0.6701 0.0000
vt 0.5007 0.8218 0.0000
vt 0.5007 0.4515 0.0000
vt 0.6258 0.2838 0.0000
vt 0.5235 0.2838 0.0000
vt 0.5235 0.2739 0.0000
vt 0.6258 0.2739 0.0000
vt 0.7086 0.5696 0.0000
vt 0.5235 0.5696 0.0000
vt 0.5235 0.5597 0.0000
vt 0.7086 0.5597 0.0000
vt 0.2964 0.6610 0.0000
vt 0.2964 0.5587 0.0000
vt 0.3063 0.5587 0.0000
vt 0.3063 0.6610 0.0000
vt 0.1951 0.9866 0.0000
vt 0.0100 0.9866 0.0000
vt 0.0100 0.9766 0.0000
vt 0.1951 0.9766 0.0000
vt 0.5235 0.4274 0.0000
vt 0.5235 0.5364 0.0000
vt 0.5477 0.1191 0.0000
vt 0.5235 0.1191 0.0000
vt 0.5235 0.0100 0.0000
vt 0.5477 0.0100 0.0000
vt 0.9900 0.1191 0.0000
vt 0.7310 0.0886 0.0000
vt 0.7893 0.0886 0.0000
vt 0.7310 0.0401 0.0000
vt 0.9900 0.0100 0.0000
vt 0.7893 0.0401 0.0000
vt 0.2670 0.5343 0.0000
vt 0.2670 0.5926 0.0000
vt 0.2602 0.5926 0.0000
vt 0.2602 0.5343 0.0000
vt 0.2329 0.6237 0.0000
vt 0.2814 0.6237 0.0000
vt 0.2814 0.6305 0.0000
vt 0.2329 0.6305 0.0000
vt 0.2746 0.5926 0.0000
vt 0.2746 0.5343 0.0000
vt 0.2814 0.5343 0.0000
vt 0.2814 0.5926 0.0000
vt 0.2814 0.6449 0.0000
vt 0.2329 0.6449 0.0000
vt 0.2329 0.6381 0.0000
vt 0.2814 0.6381 0.0000
# 74 texture coords

g museum001_chanel01
usemtl 03___Default
s 1
f 1/1/1 2/2/1 3/3/1 4/4/1 
f 1/1/1 4/4/1 5/5/1 6/6/1 
s 2
f 3/7/2 7/8/2 8/9/2 4/10/2 
s 4
f 4/11/3 8/12/3 9/13/3 5/14/3 
s 2
f 5/15/4 9/16/4 10/17/4 6/18/4 
s 1
f 11/19/5 12/20/5 13/21/5 14/22/5 
f 13/21/5 15/23/5 14/22/5 
f 16/24/5 11/19/5 14/22/5 
f 15/23/5 13/21/5 17/25/5 8/26/5 
f 7/27/5 15/23/5 8/26/5 
f 8/26/5 17/25/5 18/28/5 9/29/5 
f 9/29/5 18/28/5 12/20/5 10/30/5 
f 12/20/5 11/19/5 10/30/5 
s 2
f 13/31/6 12/32/6 19/33/6 20/34/6 
s 4
f 17/35/2 13/36/2 20/37/2 21/38/2 
s 2
f 18/39/3 17/40/3 21/41/3 22/42/3 
s 4
f 12/43/4 18/44/4 22/45/4 19/46/4 
s 1
f 10/30/5 11/19/5 16/24/5 
f 14/22/5 15/23/5 7/27/5 
s 4
f 14/47/7 7/8/7 3/7/7 2/48/7 
f 1/49/8 6/50/8 10/51/8 16/52/8 
s off
f 2/53/6 1/49/6 23/54/6 24/55/6 
f 1/49/9 16/52/9 25/56/9 23/54/9 
f 16/52/6 14/57/6 26/58/6 25/56/6 
f 14/57/6 2/53/6 24/55/6 26/58/6 
f 24/59/1 23/60/1 27/61/1 28/62/1 
f 23/63/4 25/64/4 29/65/4 27/66/4 
f 25/67/5 26/68/5 30/69/5 29/70/5 
f 26/71/2 24/72/2 28/73/2 30/74/2 
# 23 polygons - 6 triangles

